<svg xmlns="http://www.w3.org/2000/svg" viewBox="0 0 512 512">
  <circle cx="256" cy="256" r="256" fill="#2563eb"/>
  <path d="M368 144h-16c-8.8 0-16 7.2-16 16v16c0 8.8 7.2 16 16 16h16c8.8 0 16-7.2 16-16v-16c0-8.8-7.2-16-16-16zm-224 0h-16c-8.8 0-16 7.2-16 16v16c0 8.8 7.2 16 16 16h16c8.8 0 16-7.2 16-16v-16c0-8.8-7.2-16-16-16zm112-64c-8.8 0-16 7.2-16 16v32c0 8.8 7.2 16 16 16h16c8.8 0 16-7.2 16-16v-32c0-8.8-7.2-16-16-16h-16zm149.4 102.6c-11.2-11.2-27.6-14.6-41.4-10.6l-32 10.6c-12.6 4.2-26.2-2.6-30.4-15.2s2.6-26.2 15.2-30.4l32-10.6c22.6-7.6 39.2-27.6 42.4-51.4 3.2-23.8-8.4-47.4-28.4-58.4-20-11-44.6-8.2-62.6 6.4l-16 12.8c-10.2 8.2-25 8.2-35.2 0l-16-12.8c-18-14.6-42.6-17.4-62.6-6.4-20 11-31.6 34.6-28.4 58.4 3.2 23.8 19.8 43.8 42.4 51.4l32 10.6c12.6 4.2 19.4 17.8 15.2 30.4s-17.8 19.4-30.4 15.2l-32-10.6c-13.8-4.6-30.2.6-41.4 10.6C34.6 224 0 272 0 326.4V464c0 26.5 21.5 48 48 48h416c26.5 0 48-21.5 48-48V326.4c0-54.4-34.6-102.4-96.6-119.8zM256 336c-26.5 0-48-21.5-48-48s21.5-48 48-48 48 21.5 48 48-21.5 48-48 48zm160 128H96v-32c0-35.3 28.7-64 64-64h192c35.3 0 64 28.7 64 64v32z" fill="white"/>
  <path d="M384 336l-32-32-64 64-32-32-32 32 64 64 96-96z" fill="#4ade80"/>
</svg>